<?xml version="1.0" encoding="utf-8"?>
<!-- Generator: Adobe Illustrator 21.1.0, SVG Export Plug-In . SVG Version: 6.00 Build 0)  -->
<svg version="1.1" id="Ebene_1" xmlns="http://www.w3.org/2000/svg" xmlns:xlink="http://www.w3.org/1999/xlink" x="0px" y="0px"
	 width="283.5px" height="141.7px" viewBox="0 0 283.5 141.7" style="enable-background:new 0 0 283.5 141.7;" xml:space="preserve"
	>
<style type="text/css">
	.st0{opacity:0.1;stroke:#FFFFFF;stroke-miterlimit:10;}
	.st1{opacity:0.7;}
	.st2{stroke:#FFFFFF;stroke-miterlimit:10;}
	.st3{opacity:0.4;}
	.st4{fill:#011216;}
</style>
<rect y="0" class="st0" width="283.5" height="141.7"/>
<g class="st1">
	<path class="st2" d="M32.9,106.6c0.2,1.3,0.5,2.2,1,2.7c0.9,1,2.6,1.4,5,1.4c1.4,0,2.6-0.2,3.4-0.6c0.8-0.4,1.3-1.1,1.3-1.9
		c0-0.8-0.3-1.4-1-1.9s-3.2-1.2-7.6-2.2c-3.2-0.8-5.4-1.8-6.7-2.9c-1.3-1.2-1.9-2.8-1.9-5c0-2.6,1-4.8,3-6.6c2-1.8,4.8-2.8,8.5-2.8
		c3.5,0,6.3,0.7,8.5,2.1c2.2,1.4,3.4,3.8,3.8,7.2h-7.2c-0.1-0.9-0.4-1.7-0.8-2.2c-0.8-1-2.2-1.5-4.1-1.5c-1.6,0-2.7,0.2-3.4,0.7
		s-1,1.1-1,1.7c0,0.8,0.4,1.4,1.1,1.8c0.7,0.4,3.2,1.1,7.6,2c2.9,0.7,5.1,1.7,6.5,3.1c1.4,1.4,2.1,3.1,2.1,5.2c0,2.7-1,5-3.1,6.7
		c-2,1.7-5.2,2.6-9.5,2.6c-4.4,0-7.6-0.9-9.7-2.8c-2.1-1.8-3.1-4.2-3.1-7L32.9,106.6L32.9,106.6z"/>
	<path class="st2" d="M76.9,88.3c1.9,0.9,3.5,2.2,4.8,4.1c1.1,1.6,1.9,3.6,2.2,5.7c0.2,1.3,0.3,3.1,0.2,5.5H63.9
		c0.1,2.8,1.1,4.7,2.9,5.9c1.1,0.7,2.4,1,4,1c1.7,0,3-0.4,4-1.3c0.6-0.5,1.1-1.1,1.5-1.9h7.4c-0.2,1.6-1.1,3.3-2.7,5
		c-2.5,2.7-6,4-10.4,4c-3.7,0-6.9-1.1-9.8-3.4c-2.8-2.3-4.2-6-4.2-11.1c0-4.8,1.3-8.5,3.8-11.1c2.5-2.6,5.9-3.8,9.9-3.8
		C72.8,87,74.9,87.4,76.9,88.3z M66,94.6c-1,1.1-1.7,2.5-1.9,4.3h12.5c-0.1-1.9-0.8-3.4-1.9-4.4c-1.2-1-2.6-1.5-4.3-1.5
		C68.5,93,67.1,93.5,66,94.6z"/>
	<path class="st2" d="M112.8,89.3c1.8,1.5,2.7,4,2.7,7.5v18.7h-7.4V98.6c0-1.5-0.2-2.6-0.6-3.4c-0.7-1.4-2.1-2.1-4-2.1
		c-2.4,0-4.1,1-5,3.1c-0.5,1.1-0.7,2.5-0.7,4.2v15h-7.2V87.8h7v4c0.9-1.4,1.8-2.5,2.6-3.1c1.5-1.1,3.4-1.7,5.6-1.7
		C108.6,87.1,110.9,87.8,112.8,89.3z"/>
	<path class="st2" d="M138.5,88.2c1.3,0.7,2.4,1.8,3.2,3.1V78h7.4v37.4h-7v-3.8c-1,1.6-2.2,2.8-3.5,3.6c-1.3,0.7-3,1.1-4.9,1.1
		c-3.2,0-6-1.3-8.2-3.9c-2.2-2.6-3.3-6-3.3-10.1c0-4.7,1.1-8.5,3.3-11.2c2.2-2.7,5.1-4.1,8.7-4.1C135.7,87.1,137.2,87.4,138.5,88.2z
		 M140.3,107.9c1.1-1.5,1.6-3.5,1.6-5.9c0-3.4-0.9-5.8-2.6-7.3c-1.1-0.9-2.3-1.3-3.7-1.3c-2.1,0-3.7,0.8-4.7,2.4
		c-1,1.6-1.5,3.6-1.5,6c0,2.6,0.5,4.6,1.5,6.1c1,1.5,2.5,2.3,4.6,2.3S139.2,109.5,140.3,107.9z"/>
	<path class="st2" d="M176.3,88.3c1.9,0.9,3.5,2.2,4.8,4.1c1.1,1.6,1.9,3.6,2.2,5.7c0.2,1.3,0.3,3.1,0.2,5.5h-20.2
		c0.1,2.8,1.1,4.7,2.9,5.9c1.1,0.7,2.4,1,4,1c1.7,0,3-0.4,4-1.3c0.6-0.5,1.1-1.1,1.5-1.9h7.4c-0.2,1.6-1.1,3.3-2.7,5
		c-2.5,2.7-6,4-10.4,4c-3.7,0-6.9-1.1-9.8-3.4c-2.8-2.3-4.2-6-4.2-11.1c0-4.8,1.3-8.5,3.8-11.1s5.9-3.8,9.9-3.8
		C172.2,87,174.4,87.4,176.3,88.3z M165.4,94.6c-1,1.1-1.7,2.5-1.9,4.3H176c-0.1-1.9-0.8-3.4-1.9-4.4c-1.2-1-2.6-1.5-4.3-1.5
		C167.9,93,166.5,93.5,165.4,94.6z"/>
	<path class="st2" d="M200.8,98.6c1.4-0.2,2.3-0.4,2.9-0.6c1-0.4,1.6-1.1,1.6-2.1c0-1.1-0.4-1.9-1.2-2.4c-0.8-0.4-2-0.6-3.5-0.6
		c-1.7,0-3,0.4-3.7,1.3c-0.5,0.6-0.9,1.5-1,2.5h-7c0.2-2.4,0.8-4.4,2-6c1.9-2.4,5.2-3.7,9.9-3.7c3,0,5.8,0.6,8.1,1.8
		c2.4,1.2,3.6,3.5,3.6,6.8v12.7c0,0.9,0,1.9,0.1,3.2c0.1,0.9,0.2,1.6,0.4,1.9c0.2,0.3,0.6,0.6,1.1,0.8v1.1h-7.9
		c-0.2-0.6-0.4-1.1-0.5-1.6s-0.2-1.1-0.2-1.7c-1,1.1-2.2,2-3.5,2.8c-1.6,0.9-3.3,1.3-5.3,1.3c-2.5,0-4.6-0.7-6.3-2.2
		c-1.6-1.4-2.5-3.5-2.5-6.1c0-3.4,1.3-5.9,4-7.4c1.5-0.8,3.6-1.4,6.4-1.8L200.8,98.6z M205.2,102c-0.5,0.3-0.9,0.5-1.4,0.7
		c-0.5,0.2-1.1,0.3-1.9,0.5l-1.6,0.3c-1.5,0.3-2.7,0.6-3.3,1c-1.1,0.7-1.7,1.7-1.7,3.1c0,1.2,0.3,2.1,1,2.7c0.7,0.6,1.5,0.8,2.5,0.8
		c1.6,0,3-0.5,4.4-1.4s2-2.6,2.1-5L205.2,102L205.2,102z"/>
</g>
<g class="st3">
	<rect x="239.1" y="66.6" class="st4" width="31.6" height="31.6"/>
	<rect x="239.1" y="25.7" class="st4" width="31.6" height="31.6"/>
	<rect x="198.8" y="25.7" class="st4" width="31.6" height="31.6"/>
</g>
</svg>
