<?xml version="1.0" encoding="utf-8"?>
<!-- Generator: Adobe Illustrator 20.0.0, SVG Export Plug-In . SVG Version: 6.00 Build 0)  -->
<svg version="1.1" id="Layer_1" xmlns="http://www.w3.org/2000/svg" xmlns:xlink="http://www.w3.org/1999/xlink" x="0px" y="0px"
	 width="488px" height="488px" viewBox="0 0 488 488" style="enable-background:new 0 0 488 488;" xml:space="preserve">
<style type="text/css">
	.st0{fill:#FFC114;}
	.st1{fill:#FCA12A;}
	.st2{fill:none;stroke:#000000;stroke-width:5;stroke-miterlimit:10;}
</style>
<g>
	<circle class="st0" cx="244" cy="244" r="158.4"/>
</g>
<path class="st1" d="M356,132c61.6,61.6,61.6,161.6,0,224c-61.6,61.6-161.6,61.6-224,0"/>
<g>
	<polygon class="st0" points="205.6,68 244,0 282.4,68 	"/>
</g>
<g>
	<polygon class="st1" points="247.2,68 244,0 282.4,68 	"/>
</g>
<g>
	<polygon class="st0" points="282.4,420 244,488 205.6,420 	"/>
</g>
<g>
	<polygon class="st1" points="240.8,420 244,488 205.6,420 	"/>
</g>
<g>
	<polygon class="st0" points="420,205.6 488,244 420,282.4 	"/>
</g>
<g>
	<polygon class="st1" points="420,247.2 488,244 420,282.4 	"/>
</g>
<g>
	<polygon class="st0" points="68,282.4 0,244 68,205.6 	"/>
</g>
<g>
	<polygon class="st1" points="68,240.8 0,244 68,205.6 	"/>
</g>
<g>
	<polygon class="st0" points="344,89.6 419.2,68.8 398.4,144 	"/>
</g>
<g>
	<polygon class="st1" points="373.6,119.2 419.2,68.8 398.4,144 	"/>
</g>
<g>
	<polygon class="st0" points="144,398.4 68.8,419.2 89.6,344 	"/>
</g>
<g>
	<polygon class="st1" points="114.4,368.8 68.8,419.2 89.6,344 	"/>
</g>
<g>
	<polygon class="st0" points="398.4,344 419.2,419.2 344,398.4 	"/>
</g>
<g>
	<polygon class="st1" points="368.8,373.6 419.2,419.2 344,398.4 	"/>
</g>
<g>
	<polygon class="st0" points="89.6,144 68.8,68.8 144,89.6 	"/>
</g>
<g>
	<polygon class="st1" points="119.2,114.4 68.8,68.8 144,89.6 	"/>
</g>
<g>
	<circle class="st2" cx="244" cy="244" r="158.4"/>
	<polygon class="st2" points="205.6,68 244,0 282.4,68 	"/>
	<polygon class="st2" points="282.4,420 244,488 205.6,420 	"/>
	<polygon class="st2" points="420,205.6 488,244 420,282.4 	"/>
	<polygon class="st2" points="68,282.4 0,244 68,205.6 	"/>
	<polygon class="st2" points="344,89.6 419.2,68.8 398.4,144 	"/>
	<polygon class="st2" points="144,398.4 68.8,419.2 89.6,344 	"/>
	<polygon class="st2" points="398.4,344 419.2,419.2 344,398.4 	"/>
	<polygon class="st2" points="89.6,144 68.8,68.8 144,89.6 	"/>
</g>
</svg>
